<svg width="200" height="200" viewBox="0 0 200 200" fill="none" xmlns="http://www.w3.org/2000/svg">
<path d="M170.833 20.8333H29.1667L41.6667 162.5L100 179.167L158.333 162.5L170.833 20.8333Z" fill="#0277BD"/>
<path d="M100 33.3333V166.25L146.667 152.917L157.083 33.3333H100Z" fill="#039BE5"/>
<path d="M137.917 54.1667H100V70.8334H120.417L119.167 87.5001H100V104.167H118.333L117.083 122.917L100 128.75V146.25L132.917 135.417L135.833 87.5001L137.917 54.1667Z" fill="white"/>
<path d="M100 54.1667V70.8334H62.9167L61.6667 54.1667H100ZM80.8334 87.5001L81.6667 104.167H100V87.5001H80.8334ZM82.5001 112.5H65.8334L67.0834 135.417L100 146.25V128.75L82.9167 122.917L82.5001 112.5Z" fill="#EEEEEE"/>
</svg>
