<svg width="200" height="200" viewBox="0 0 200 200" fill="none" xmlns="http://www.w3.org/2000/svg">
<path d="M170.833 20.8333H29.1667L41.6667 162.5L100 179.167L158.333 162.5L170.833 20.8333Z" fill="#E65100"/>
<path d="M100 33.3333V166.25L146.667 152.917L157.083 33.3333H100Z" fill="#FF6D00"/>
<path d="M100 104.167V87.5001H135.833L132.917 135.417L100 146.25V128.75L117.083 122.917L118.333 104.167H100V104.167ZM137.083 70.8334L138.333 54.1667H100V70.8334H137.083Z" fill="white"/>
<path d="M99.9999 128.75V146.25L67.0833 135.417L65.4166 112.5H82.0833L82.9166 122.917L99.9999 128.75ZM79.5833 70.8334H99.9999V54.1667H62.0833L64.9999 104.167H99.9999V87.5001H80.8333L79.5833 70.8334Z" fill="#EEEEEE"/>
</svg>
