<svg width="200" height="200" viewBox="0 0 200 200" fill="none" xmlns="http://www.w3.org/2000/svg">
<path d="M25 175V25H175V175H25Z" fill="#FFD600"/>
<path d="M123.075 137.279C125.958 141.963 129.092 146.45 135.729 146.45C141.304 146.45 144.229 143.679 144.229 139.846C144.229 135.258 141.204 133.629 135.071 130.958L131.708 129.525C122.004 125.408 115.55 120.25 115.55 109.354C115.55 99.3126 123.237 91.6709 135.25 91.6709C143.804 91.6709 149.95 94.6334 154.383 102.392L143.908 109.088C141.604 104.971 139.112 103.35 135.25 103.35C131.308 103.35 128.812 105.838 128.812 109.088C128.812 113.104 131.312 114.729 137.083 117.217L140.446 118.65C151.883 123.521 158.333 128.496 158.333 139.679C158.333 151.729 148.817 158.333 136.042 158.333C123.546 158.333 116.45 152.063 112.5 144.3L123.075 137.279ZM74.8 137.621C76.9083 141.396 80.1125 144.3 84.7208 144.3C89.1291 144.3 91.6666 142.558 91.6666 135.788V91.6667H105.554V137.921C105.554 151.95 97.4166 158.333 85.5333 158.333C74.7958 158.333 67.0458 151.058 63.8875 144.3L74.8 137.621Z" fill="#000001"/>
</svg>
